# xmcd
#
# Track frame offsets: 
#        150
#        32187
#        62472
#        94440
#        128357
#        168492
#        189885
#        221002
#        238425
#        267632
#
# Disc length: 3895 seconds
#
# Revision: 5
# Processed by: cddbd v1.5.2PL0 Copyright (c) Steve Scherf et al.
# Submitted via: ExactAudioCopy v0.99pb5
#
DISCID=910f350a
DTITLE=Ron Carter - Mr. Bow-Tie
DYEAR=1995
DGENRE=Jazz
TTITLE0=Mr. Bow-Tie
TTITLE1=Well You Needn't
TTITLE2=Fill In The Blanks
TTITLE3=I Thought About You
TTITLE4=Nearly
TTITLE5=Cut And Paste
TTITLE6=Stablemates
TTITLE7=Wait For The Beep
TTITLE8=M.S.R.P.
TTITLE9=St. Thomas
EXTD=YEAR: 1995
EXTT0=
EXTT1=
EXTT2=
EXTT3=
EXTT4=
EXTT5=
EXTT6=
EXTT7=
EXTT8=
EXTT9=
PLAYORDER=
